<svg width="30.000000" height="30.000000" viewBox="0 0 30 30" fill="none" xmlns="http://www.w3.org/2000/svg" xmlns:xlink="http://www.w3.org/1999/xlink">
	<desc>
			Created with Pixso.
	</desc>
	<defs>
		<clipPath id="clip27_27">
			<rect id="Icon" width="30.000000" height="30.000000" fill="white" fill-opacity="0"/>
		</clipPath>
	</defs>
	<rect id="Icon" width="30.000000" height="30.000000" fill="#FFFFFF" fill-opacity="0"/>
	<g clip-path="url(#clip27_27)">
		<path id="Vector" d="M27.18 7.45C26.29 7.83 25.31 8.11 24.31 8.22C25.35 7.6 26.13 6.62 26.5 5.46C25.52 6.05 24.45 6.46 23.33 6.67C22.87 6.17 22.3 5.77 21.67 5.5C21.04 5.23 20.37 5.09 19.68 5.09C16.91 5.09 14.69 7.34 14.69 10.09C14.69 10.48 14.73 10.86 14.81 11.24C10.66 11.02 6.97 9.04 4.51 6.01C4.06 6.77 3.83 7.64 3.83 8.53C3.83 10.26 4.71 11.79 6.06 12.69C5.26 12.66 4.49 12.44 3.8 12.06L3.8 12.12C3.8 14.55 5.51 16.56 7.8 17.02C7.37 17.13 6.93 17.19 6.49 17.19C6.16 17.19 5.85 17.16 5.54 17.12C6.18 19.1 8.02 20.54 10.21 20.58C8.5 21.93 6.35 22.72 4.01 22.72C3.59 22.72 3.21 22.7 2.8 22.66C5.02 24.08 7.65 24.9 10.48 24.9C19.66 24.9 24.69 17.29 24.69 10.68C24.69 10.46 24.69 10.25 24.68 10.03C25.65 9.32 26.5 8.44 27.18 7.45Z" fill="#0F7BFF" fill-opacity="1.000000" fill-rule="nonzero"/>
	</g>
</svg>
